<svg xmlns="http://www.w3.org/2000/svg" xmlns:xlink="http://www.w3.org/1999/xlink" width="500" zoomAndPan="magnify" viewBox="0 0 375 374.999991" height="500" preserveAspectRatio="xMidYMid meet" version="1.0"><defs><g/></defs><g fill="#cbaa72" fill-opacity="1"><g transform="translate(122.423888, 323.37564)"><g><path d="M 8.648438 -86.488281 C 8.648438 -32.519531 47.394531 3.460938 94.964844 3.460938 C 124.542969 3.460938 152.910156 -5.707031 161.386719 -18.507812 L 161.386719 -37.882812 C 148.066406 -18.855469 122.121094 0 94.964844 0 C 55.007812 0 22.488281 -34.59375 22.488281 -86.488281 C 22.488281 -138.378906 55.007812 -172.976562 94.964844 -172.976562 C 124.542969 -172.976562 149.796875 -152.5625 152.390625 -133.191406 C 152.390625 -133.191406 160.175781 -132.84375 160.175781 -142.703125 C 160.175781 -165.019531 126.273438 -176.433594 94.964844 -176.433594 C 47.394531 -176.433594 8.648438 -140.457031 8.648438 -86.488281 Z M 8.648438 -86.488281 "/></g></g></g><path fill="#ffffff" d="M 44.207031 246.175781 L 330.792969 246.175781 L 330.792969 290.160156 L 44.207031 290.160156 L 44.207031 246.175781 " fill-opacity="1" fill-rule="nonzero"/><g fill="#000000" fill-opacity="1"><g transform="translate(64.421622, 276.863781)"><g><path d="M 2.078125 -19.171875 L 9.125 -19.171875 C 12.269531 -19.171875 14.707031 -18.335938 16.4375 -16.671875 C 18.175781 -15.003906 19.046875 -12.648438 19.046875 -9.609375 C 19.046875 -6.554688 18.175781 -4.191406 16.4375 -2.515625 C 14.707031 -0.835938 12.269531 0 9.125 0 L 2.078125 0 Z M 8.921875 -2.828125 C 13.335938 -2.828125 15.546875 -5.085938 15.546875 -9.609375 C 15.546875 -14.097656 13.335938 -16.34375 8.921875 -16.34375 L 5.546875 -16.34375 L 5.546875 -2.828125 Z M 8.921875 -2.828125 "/></g></g></g><g fill="#000000" fill-opacity="1"><g transform="translate(103.807368, 276.863781)"><g><path d="M 10.59375 0.25 C 8.738281 0.25 7.125 -0.148438 5.75 -0.953125 C 4.375 -1.753906 3.3125 -2.894531 2.5625 -4.375 C 1.820312 -5.851562 1.453125 -7.597656 1.453125 -9.609375 C 1.453125 -11.609375 1.816406 -13.347656 2.546875 -14.828125 C 3.285156 -16.304688 4.34375 -17.441406 5.71875 -18.234375 C 7.09375 -19.023438 8.71875 -19.421875 10.59375 -19.421875 C 12.457031 -19.421875 14.078125 -19.023438 15.453125 -18.234375 C 16.828125 -17.441406 17.875 -16.304688 18.59375 -14.828125 C 19.320312 -13.347656 19.6875 -11.609375 19.6875 -9.609375 C 19.6875 -7.597656 19.316406 -5.851562 18.578125 -4.375 C 17.847656 -2.894531 16.800781 -1.753906 15.4375 -0.953125 C 14.070312 -0.148438 12.457031 0.25 10.59375 0.25 Z M 10.59375 -2.53125 C 12.363281 -2.53125 13.742188 -3.140625 14.734375 -4.359375 C 15.722656 -5.585938 16.21875 -7.335938 16.21875 -9.609375 C 16.21875 -11.878906 15.722656 -13.617188 14.734375 -14.828125 C 13.742188 -16.035156 12.363281 -16.640625 10.59375 -16.640625 C 8.8125 -16.640625 7.425781 -16.035156 6.4375 -14.828125 C 5.445312 -13.628906 4.953125 -11.890625 4.953125 -9.609375 C 4.953125 -7.335938 5.445312 -5.585938 6.4375 -4.359375 C 7.425781 -3.140625 8.8125 -2.53125 10.59375 -2.53125 Z M 10.59375 -2.53125 "/></g></g></g><g fill="#000000" fill-opacity="1"><g transform="translate(143.839373, 276.863781)"><g><path d="M 2.078125 0 L 2.078125 -19.171875 L 5.546875 -19.171875 L 5.546875 -2.859375 L 14.515625 -2.859375 L 14.515625 0 Z M 2.078125 0 "/></g></g></g><g fill="#000000" fill-opacity="1"><g transform="translate(177.785836, 276.863781)"><g><path d="M 10.78125 0.25 C 8.894531 0.25 7.242188 -0.15625 5.828125 -0.96875 C 4.421875 -1.78125 3.335938 -2.925781 2.578125 -4.40625 C 1.828125 -5.882812 1.453125 -7.617188 1.453125 -9.609375 C 1.453125 -11.585938 1.828125 -13.316406 2.578125 -14.796875 C 3.335938 -16.285156 4.421875 -17.425781 5.828125 -18.21875 C 7.242188 -19.019531 8.894531 -19.421875 10.78125 -19.421875 C 12.070312 -19.421875 13.285156 -19.21875 14.421875 -18.8125 C 15.566406 -18.40625 16.515625 -17.84375 17.265625 -17.125 L 16.140625 -14.59375 C 15.273438 -15.300781 14.414062 -15.8125 13.5625 -16.125 C 12.707031 -16.4375 11.796875 -16.59375 10.828125 -16.59375 C 8.972656 -16.59375 7.539062 -15.988281 6.53125 -14.78125 C 5.519531 -13.582031 5.015625 -11.859375 5.015625 -9.609375 C 5.015625 -7.347656 5.515625 -5.613281 6.515625 -4.40625 C 7.523438 -3.195312 8.960938 -2.59375 10.828125 -2.59375 C 11.796875 -2.59375 12.707031 -2.75 13.5625 -3.0625 C 14.414062 -3.375 15.273438 -3.878906 16.140625 -4.578125 L 17.265625 -2.046875 C 16.515625 -1.328125 15.566406 -0.765625 14.421875 -0.359375 C 13.285156 0.046875 12.070312 0.25 10.78125 0.25 Z M 10.78125 0.25 "/></g></g></g><g fill="#000000" fill-opacity="1"><g transform="translate(215.098189, 276.863781)"><g><path d="M 16.734375 0 L 14.8125 -4.5 L 5.4375 -4.5 L 3.5 0 L 0 0 L 8.671875 -19.171875 L 11.5 -19.171875 L 20.203125 0 Z M 6.59375 -7.1875 L 13.65625 -7.1875 L 10.125 -15.40625 Z M 6.59375 -7.1875 "/></g></g></g><g fill="#000000" fill-opacity="1"><g transform="translate(254.160806, 276.863781)"><g><path d="M 8.5625 0.25 C 7.09375 0.25 5.710938 0.0507812 4.421875 -0.34375 C 3.140625 -0.738281 2.050781 -1.304688 1.15625 -2.046875 L 2.34375 -4.578125 C 3.28125 -3.878906 4.253906 -3.363281 5.265625 -3.03125 C 6.273438 -2.695312 7.382812 -2.53125 8.59375 -2.53125 C 9.925781 -2.53125 10.953125 -2.765625 11.671875 -3.234375 C 12.398438 -3.703125 12.765625 -4.359375 12.765625 -5.203125 C 12.765625 -5.921875 12.425781 -6.472656 11.75 -6.859375 C 11.082031 -7.242188 9.976562 -7.609375 8.4375 -7.953125 C 6.03125 -8.472656 4.273438 -9.144531 3.171875 -9.96875 C 2.078125 -10.789062 1.53125 -11.992188 1.53125 -13.578125 C 1.53125 -14.710938 1.832031 -15.71875 2.4375 -16.59375 C 3.050781 -17.46875 3.921875 -18.15625 5.046875 -18.65625 C 6.171875 -19.164062 7.46875 -19.421875 8.9375 -19.421875 C 10.289062 -19.421875 11.570312 -19.21875 12.78125 -18.8125 C 13.988281 -18.40625 14.984375 -17.84375 15.765625 -17.125 L 14.59375 -14.59375 C 12.894531 -15.957031 11.007812 -16.640625 8.9375 -16.640625 C 7.695312 -16.640625 6.71875 -16.382812 6 -15.875 C 5.28125 -15.363281 4.921875 -14.671875 4.921875 -13.796875 C 4.921875 -13.035156 5.238281 -12.457031 5.875 -12.0625 C 6.519531 -11.664062 7.613281 -11.300781 9.15625 -10.96875 C 10.757812 -10.582031 12.0625 -10.171875 13.0625 -9.734375 C 14.070312 -9.296875 14.84375 -8.726562 15.375 -8.03125 C 15.914062 -7.34375 16.1875 -6.476562 16.1875 -5.4375 C 16.1875 -4.289062 15.878906 -3.289062 15.265625 -2.4375 C 14.660156 -1.582031 13.78125 -0.921875 12.625 -0.453125 C 11.476562 0.015625 10.125 0.25 8.5625 0.25 Z M 8.5625 0.25 "/></g></g></g><g fill="#000000" fill-opacity="1"><g transform="translate(290.369152, 276.863781)"><g><path d="M 16.734375 0 L 14.8125 -4.5 L 5.4375 -4.5 L 3.5 0 L 0 0 L 8.671875 -19.171875 L 11.5 -19.171875 L 20.203125 0 Z M 6.59375 -7.1875 L 13.65625 -7.1875 L 10.125 -15.40625 Z M 6.59375 -7.1875 "/></g></g></g><g fill="#cbaa72" fill-opacity="1"><g transform="translate(54.894989, 216.605714)"><g><path d="M 13.839844 -172.976562 L 13.839844 0 L 68.5 0 C 114.855469 0 150.316406 -36.324219 150.316406 -86.488281 C 150.316406 -136.652344 114.855469 -172.976562 68.5 -172.976562 Z M 27.675781 -161.214844 C 28.367188 -167.785156 31.308594 -169.515625 36.671875 -169.515625 C 42.03125 -169.515625 52.929688 -169.6875 57.601562 -169.6875 C 112.261719 -169.6875 135.441406 -126.617188 135.441406 -86.488281 C 135.441406 -46.355469 112.261719 -2.421875 57.601562 -2.421875 C 52.929688 -2.421875 42.03125 -2.59375 36.671875 -2.59375 C 30.445312 -2.59375 27.503906 -5.015625 27.503906 -14.355469 C 27.503906 -36.324219 27.675781 -149.105469 27.675781 -161.214844 Z M 27.675781 -161.214844 "/></g></g></g></svg>