<svg xmlns="http://www.w3.org/2000/svg" xmlns:xlink="http://www.w3.org/1999/xlink" width="500" zoomAndPan="magnify" viewBox="0 0 375 374.999991" height="500" preserveAspectRatio="xMidYMid meet" version="1.0"><defs><g/></defs><rect x="-37.5" width="450" fill="#ffffff" y="-37.499999" height="449.999989" fill-opacity="1"/><rect x="-37.5" width="450" fill="#ffffff" y="-37.499999" height="449.999989" fill-opacity="1"/><rect x="-37.5" width="450" fill="#ffffff" y="-37.499999" height="449.999989" fill-opacity="1"/><g fill="#cbaa72" fill-opacity="1"><g transform="translate(156.630012, 237.345035)"><g><path d="M 4.101562 -41.027344 C 4.101562 -15.425781 22.484375 1.640625 45.046875 1.640625 C 59.078125 1.640625 72.535156 -2.707031 76.554688 -8.78125 L 76.554688 -17.96875 C 70.238281 -8.945312 57.929688 0 45.046875 0 C 26.09375 0 10.667969 -16.410156 10.667969 -41.027344 C 10.667969 -65.644531 26.09375 -82.054688 45.046875 -82.054688 C 59.078125 -82.054688 71.058594 -72.371094 72.289062 -63.179688 C 72.289062 -63.179688 75.980469 -63.015625 75.980469 -67.695312 C 75.980469 -78.28125 59.898438 -83.695312 45.046875 -83.695312 C 22.484375 -83.695312 4.101562 -66.628906 4.101562 -41.027344 Z M 4.101562 -41.027344 "/></g></g></g><path fill="#ffffff" d="M 119.527344 200.722656 L 255.472656 200.722656 L 255.472656 221.589844 L 119.527344 221.589844 L 119.527344 200.722656 " fill-opacity="1" fill-rule="nonzero"/><g fill="#000000" fill-opacity="1"><g transform="translate(129.115615, 215.281303)"><g><path d="M 0.984375 -9.09375 L 4.328125 -9.09375 C 5.816406 -9.09375 6.972656 -8.695312 7.796875 -7.90625 C 8.617188 -7.113281 9.03125 -6 9.03125 -4.5625 C 9.03125 -3.113281 8.617188 -1.988281 7.796875 -1.1875 C 6.972656 -0.394531 5.816406 0 4.328125 0 L 0.984375 0 Z M 4.234375 -1.34375 C 6.328125 -1.34375 7.375 -2.414062 7.375 -4.5625 C 7.375 -6.695312 6.328125 -7.765625 4.234375 -7.765625 L 2.640625 -7.765625 L 2.640625 -1.34375 Z M 4.234375 -1.34375 "/></g></g></g><g fill="#000000" fill-opacity="1"><g transform="translate(147.798929, 215.281303)"><g><path d="M 5.015625 0.109375 C 4.140625 0.109375 3.375 -0.078125 2.71875 -0.453125 C 2.070312 -0.828125 1.570312 -1.363281 1.21875 -2.0625 C 0.863281 -2.769531 0.6875 -3.601562 0.6875 -4.5625 C 0.6875 -5.507812 0.859375 -6.332031 1.203125 -7.03125 C 1.554688 -7.738281 2.054688 -8.28125 2.703125 -8.65625 C 3.359375 -9.03125 4.128906 -9.21875 5.015625 -9.21875 C 5.910156 -9.21875 6.679688 -9.03125 7.328125 -8.65625 C 7.984375 -8.28125 8.484375 -7.738281 8.828125 -7.03125 C 9.171875 -6.332031 9.34375 -5.507812 9.34375 -4.5625 C 9.34375 -3.601562 9.164062 -2.769531 8.8125 -2.0625 C 8.46875 -1.363281 7.972656 -0.828125 7.328125 -0.453125 C 6.679688 -0.078125 5.910156 0.109375 5.015625 0.109375 Z M 5.015625 -1.203125 C 5.859375 -1.203125 6.515625 -1.488281 6.984375 -2.0625 C 7.453125 -2.644531 7.6875 -3.476562 7.6875 -4.5625 C 7.6875 -5.632812 7.453125 -6.457031 6.984375 -7.03125 C 6.515625 -7.613281 5.859375 -7.90625 5.015625 -7.90625 C 4.171875 -7.90625 3.515625 -7.617188 3.046875 -7.046875 C 2.585938 -6.472656 2.359375 -5.644531 2.359375 -4.5625 C 2.359375 -3.476562 2.585938 -2.644531 3.046875 -2.0625 C 3.515625 -1.488281 4.171875 -1.203125 5.015625 -1.203125 Z M 5.015625 -1.203125 "/></g></g></g><g fill="#000000" fill-opacity="1"><g transform="translate(166.788807, 215.281303)"><g><path d="M 0.984375 0 L 0.984375 -9.09375 L 2.640625 -9.09375 L 2.640625 -1.359375 L 6.890625 -1.359375 L 6.890625 0 Z M 0.984375 0 "/></g></g></g><g fill="#000000" fill-opacity="1"><g transform="translate(182.891903, 215.281303)"><g><path d="M 5.109375 0.109375 C 4.210938 0.109375 3.429688 -0.078125 2.765625 -0.453125 C 2.097656 -0.835938 1.582031 -1.378906 1.21875 -2.078125 C 0.863281 -2.785156 0.6875 -3.613281 0.6875 -4.5625 C 0.6875 -5.5 0.863281 -6.316406 1.21875 -7.015625 C 1.582031 -7.722656 2.097656 -8.265625 2.765625 -8.640625 C 3.429688 -9.023438 4.210938 -9.21875 5.109375 -9.21875 C 5.722656 -9.21875 6.300781 -9.117188 6.84375 -8.921875 C 7.382812 -8.734375 7.832031 -8.46875 8.1875 -8.125 L 7.65625 -6.921875 C 7.25 -7.253906 6.84375 -7.492188 6.4375 -7.640625 C 6.03125 -7.796875 5.597656 -7.875 5.140625 -7.875 C 4.265625 -7.875 3.582031 -7.585938 3.09375 -7.015625 C 2.613281 -6.441406 2.375 -5.625 2.375 -4.5625 C 2.375 -3.488281 2.613281 -2.664062 3.09375 -2.09375 C 3.570312 -1.519531 4.253906 -1.234375 5.140625 -1.234375 C 5.597656 -1.234375 6.03125 -1.304688 6.4375 -1.453125 C 6.84375 -1.597656 7.25 -1.835938 7.65625 -2.171875 L 8.1875 -0.96875 C 7.832031 -0.625 7.382812 -0.359375 6.84375 -0.171875 C 6.300781 0.015625 5.722656 0.109375 5.109375 0.109375 Z M 5.109375 0.109375 "/></g></g></g><g fill="#000000" fill-opacity="1"><g transform="translate(200.591666, 215.281303)"><g><path d="M 7.9375 0 L 7.03125 -2.140625 L 2.578125 -2.140625 L 1.65625 0 L 0 0 L 4.109375 -9.09375 L 5.453125 -9.09375 L 9.578125 0 Z M 3.125 -3.40625 L 6.484375 -3.40625 L 4.8125 -7.3125 Z M 3.125 -3.40625 "/></g></g></g><g fill="#000000" fill-opacity="1"><g transform="translate(219.121698, 215.281303)"><g><path d="M 4.0625 0.109375 C 3.363281 0.109375 2.707031 0.015625 2.09375 -0.171875 C 1.488281 -0.359375 0.972656 -0.625 0.546875 -0.96875 L 1.109375 -2.171875 C 1.554688 -1.835938 2.019531 -1.59375 2.5 -1.4375 C 2.976562 -1.28125 3.503906 -1.203125 4.078125 -1.203125 C 4.703125 -1.203125 5.1875 -1.3125 5.53125 -1.53125 C 5.882812 -1.75 6.0625 -2.0625 6.0625 -2.46875 C 6.0625 -2.8125 5.898438 -3.070312 5.578125 -3.25 C 5.253906 -3.4375 4.726562 -3.609375 4 -3.765625 C 2.851562 -4.015625 2.019531 -4.332031 1.5 -4.71875 C 0.988281 -5.113281 0.734375 -5.6875 0.734375 -6.4375 C 0.734375 -6.976562 0.875 -7.457031 1.15625 -7.875 C 1.445312 -8.289062 1.859375 -8.617188 2.390625 -8.859375 C 2.921875 -9.097656 3.539062 -9.21875 4.25 -9.21875 C 4.882812 -9.21875 5.488281 -9.117188 6.0625 -8.921875 C 6.632812 -8.734375 7.109375 -8.46875 7.484375 -8.125 L 6.921875 -6.921875 C 6.117188 -7.578125 5.226562 -7.90625 4.25 -7.90625 C 3.65625 -7.90625 3.1875 -7.78125 2.84375 -7.53125 C 2.507812 -7.289062 2.34375 -6.960938 2.34375 -6.546875 C 2.34375 -6.179688 2.492188 -5.90625 2.796875 -5.71875 C 3.097656 -5.53125 3.613281 -5.359375 4.34375 -5.203125 C 5.101562 -5.023438 5.722656 -4.832031 6.203125 -4.625 C 6.679688 -4.414062 7.046875 -4.144531 7.296875 -3.8125 C 7.554688 -3.488281 7.6875 -3.078125 7.6875 -2.578125 C 7.6875 -2.035156 7.539062 -1.5625 7.25 -1.15625 C 6.957031 -0.75 6.535156 -0.4375 5.984375 -0.21875 C 5.441406 0 4.800781 0.109375 4.0625 0.109375 Z M 4.0625 0.109375 "/></g></g></g><g fill="#000000" fill-opacity="1"><g transform="translate(236.297757, 215.281303)"><g><path d="M 7.9375 0 L 7.03125 -2.140625 L 2.578125 -2.140625 L 1.65625 0 L 0 0 L 4.109375 -9.09375 L 5.453125 -9.09375 L 9.578125 0 Z M 3.125 -3.40625 L 6.484375 -3.40625 L 4.8125 -7.3125 Z M 3.125 -3.40625 "/></g></g></g><g fill="#cbaa72" fill-opacity="1"><g transform="translate(124.5965, 186.696866)"><g><path d="M 6.5625 -82.054688 L 6.5625 0 L 32.492188 0 C 54.484375 0 71.304688 -17.230469 71.304688 -41.027344 C 71.304688 -64.824219 54.484375 -82.054688 32.492188 -82.054688 Z M 13.128906 -76.472656 C 13.457031 -79.59375 14.851562 -80.414062 17.394531 -80.414062 C 19.9375 -80.414062 25.109375 -80.496094 27.324219 -80.496094 C 53.253906 -80.496094 64.25 -60.0625 64.25 -41.027344 C 64.25 -21.992188 53.253906 -1.148438 27.324219 -1.148438 C 25.109375 -1.148438 19.9375 -1.230469 17.394531 -1.230469 C 14.441406 -1.230469 13.046875 -2.378906 13.046875 -6.808594 C 13.046875 -17.230469 13.128906 -70.730469 13.128906 -76.472656 Z M 13.128906 -76.472656 "/></g></g></g></svg>